<svg xmlns="http://www.w3.org/2000/svg" xmlns:xlink="http://www.w3.org/1999/xlink" enable-background="new 0 0 24 24" version="1.0" xml:space="preserve" width="24" height="24" style=""><rect id="backgroundrect" width="100%" height="100%" x="0" y="0" fill="none" stroke="none"/><g class="currentLayer" style=""><title>Layer 1</title><g id="svg_1" class="" fill="#ffffff" fill-opacity="1"><path d="M9,9c0-1.7,1.3-3,3-3s3,1.3,3,3c0,1.7-1.3,3-3,3S9,10.7,9,9z M12,14c-4.6,0-6,3.3-6,3.3V19h12v-1.7C18,17.3,16.6,14,12,14z   " id="svg_2" fill="#ffffff" fill-opacity="1"/></g><g id="svg_3"><g id="svg_4"><circle cx="18.5" cy="8.5" r="2.5" id="svg_5"/></g><g id="svg_6"><path d="M18.5,13c-1.2,0-2.1,0.3-2.8,0.8c2.3,1.1,3.2,3,3.2,3.2l0,0.1H23v-1.3C23,15.7,21.9,13,18.5,13z" id="svg_7"/></g></g><g id="svg_8" class="" fill="#ffffff" fill-opacity="1"><g id="svg_9" fill="#ffffff" fill-opacity="1"><circle cx="18.5" cy="8.5" r="2.5" id="svg_10" fill="#ffffff" fill-opacity="1"/></g><g id="svg_11" fill="#ffffff" fill-opacity="1"><path d="M18.5,13c-1.2,0-2.1,0.3-2.8,0.8c2.3,1.1,3.2,3,3.2,3.2l0,0.1H23v-1.3C23,15.7,21.9,13,18.5,13z" id="svg_12" fill="#ffffff" fill-opacity="1"/></g></g><g id="svg_13" class="" fill="#ffffff" fill-opacity="1"><g id="svg_14" fill="#ffffff" fill-opacity="1"><circle cx="5.5" cy="8.5" r="2.5" id="svg_15" fill="#ffffff" fill-opacity="1"/></g><g id="svg_16" fill="#ffffff" fill-opacity="1"><path d="M5.5,13c1.2,0,2.1,0.3,2.8,0.8c-2.3,1.1-3.2,3-3.2,3.2l0,0.1H1v-1.3C1,15.7,2.1,13,5.5,13z" id="svg_17" fill="#ffffff" fill-opacity="1"/></g></g></g></svg>